<svg width="48" height="48" viewBox="0 0 48 48" fill="none" xmlns="http://www.w3.org/2000/svg">
<rect width="48" height="48" rx="24" fill="#D8DAD9" fill-opacity="0.15"/>
<path d="M31.3084 30.275C31.3084 30.575 31.2417 30.8834 31.1001 31.1834C30.9584 31.4834 30.7751 31.7667 30.5334 32.0334C30.1251 32.4834 29.6751 32.8084 29.1667 33.0167C28.6667 33.225 28.1251 33.3334 27.5417 33.3334C26.6917 33.3334 25.7834 33.1334 24.8251 32.725C23.8667 32.3167 22.9084 31.7667 21.9584 31.075C21.0001 30.375 20.0917 29.6 19.2251 28.7417C18.3667 27.875 17.5917 26.9667 16.9001 26.0167C16.2167 25.0667 15.6667 24.1167 15.2667 23.175C14.8667 22.225 14.6667 21.3167 14.6667 20.45C14.6667 19.8834 14.7667 19.3417 14.9667 18.8417C15.1667 18.3334 15.4834 17.8667 15.9251 17.45C16.4584 16.925 17.0417 16.6667 17.6584 16.6667C17.8917 16.6667 18.1251 16.7167 18.3334 16.8167C18.5501 16.9167 18.7417 17.0667 18.8917 17.2834L20.8251 20.0084C20.9751 20.2167 21.0834 20.4084 21.1584 20.5917C21.2334 20.7667 21.2751 20.9417 21.2751 21.1C21.2751 21.3 21.2167 21.5 21.1001 21.6917C20.9917 21.8834 20.8334 22.0834 20.6334 22.2834L20.0001 22.9417C19.9084 23.0334 19.8667 23.1417 19.8667 23.275C19.8667 23.3417 19.8751 23.4 19.8917 23.4667C19.9167 23.5334 19.9417 23.5834 19.9584 23.6334C20.1084 23.9084 20.3667 24.2667 20.7334 24.7C21.1084 25.1334 21.5084 25.575 21.9417 26.0167C22.3917 26.4584 22.8251 26.8667 23.2667 27.2417C23.7001 27.6084 24.0584 27.8584 24.3417 28.0084C24.3834 28.025 24.4334 28.05 24.4917 28.075C24.5584 28.1 24.6251 28.1084 24.7001 28.1084C24.8417 28.1084 24.9501 28.0584 25.0417 27.9667L25.6751 27.3417C25.8834 27.1334 26.0834 26.975 26.2751 26.875C26.4667 26.7584 26.6584 26.7 26.8667 26.7C27.0251 26.7 27.1917 26.7334 27.3751 26.8084C27.5584 26.8834 27.7501 26.9917 27.9584 27.1334L30.7167 29.0917C30.9334 29.2417 31.0834 29.4167 31.1751 29.625C31.2584 29.8334 31.3084 30.0417 31.3084 30.275Z" stroke="#0BAC56" stroke-width="1.2" stroke-miterlimit="10"/>
<path d="M28.4167 22.5001C28.4167 22.0001 28.025 21.2334 27.4417 20.6084C26.9083 20.0334 26.2 19.5834 25.5 19.5834" stroke="#0BAC56" stroke-width="1.2" stroke-linecap="round" stroke-linejoin="round"/>
<path d="M31.3333 22.5C31.3333 19.275 28.725 16.6667 25.5 16.6667" stroke="#0BAC56" stroke-width="1.2" stroke-linecap="round" stroke-linejoin="round"/>
</svg>
